<svg width="99" height="87" viewBox="0 0 99 87" fill="none" xmlns="http://www.w3.org/2000/svg">
<g id="Button">
<rect x="1" y="1" width="97" height="85" rx="6" stroke="white" stroke-width="0.5"/>
<g id="_2405588477232">
<g id="Group">
<g id="Group_2">
<path id="Vector" d="M28.6113 33.5037V53.4957C28.6113 54.7809 29.2845 55.9437 30.4065 56.5965L47.7261 66.5925C48.8277 67.2249 50.1945 67.2249 51.2961 66.5925L68.6157 56.5965C69.7173 55.9641 70.4109 54.7809 70.4109 53.4957V33.5037C70.4109 32.2185 69.7377 31.0557 68.6157 30.4029L51.2961 20.4069C50.1945 19.7745 48.8277 19.7745 47.7261 20.4069L30.4065 30.4029C29.3049 31.0353 28.6317 32.2185 28.6317 33.5037H28.6113Z" fill="#213147"/>
<g id="Group_3">
<g id="Group_4">
<g id="Group_5">
<path id="Vector_2" d="M53.2692 47.375L50.8008 54.1478C50.7396 54.3314 50.7396 54.5354 50.8008 54.7394L55.044 66.3878L59.9604 63.5522L54.0648 47.375C53.922 47.0078 53.412 47.0078 53.2692 47.375Z" fill="#12AAFF"/>
</g>
<g id="Group_6">
<path id="Vector_3" d="M58.2308 35.9922C58.088 35.625 57.578 35.625 57.4352 35.9922L54.9668 42.765C54.9056 42.9486 54.9056 43.1526 54.9668 43.3566L61.9232 62.4306L66.8396 59.595L58.2308 36.0126V35.9922Z" fill="#12AAFF"/>
</g>
</g>
</g>
<g id="Group_7">
<path id="Vector_4" d="M49.5007 21.162C49.6231 21.162 49.7455 21.2028 49.8475 21.264L68.5747 32.076C68.7991 32.1984 68.9215 32.4432 68.9215 32.688V54.312C68.9215 54.5568 68.7787 54.8016 68.5747 54.924L49.8475 65.736C49.7455 65.7972 49.6231 65.838 49.5007 65.838C49.3783 65.838 49.2559 65.7972 49.1539 65.736L30.4267 54.924C30.2023 54.8016 30.0799 54.5568 30.0799 54.312V32.6676C30.0799 32.4228 30.2227 32.178 30.4267 32.0556L49.1539 21.2436C49.2559 21.1824 49.3783 21.1416 49.5007 21.1416V21.162ZM49.5007 18C48.8275 18 48.1747 18.1632 47.5627 18.51L28.8355 29.322C27.6319 30.0156 26.8975 31.2804 26.8975 32.6676V54.2916C26.8975 55.6788 27.6319 56.9436 28.8355 57.6372L47.5627 68.4492C48.1543 68.796 48.8275 68.9592 49.5007 68.9592C50.1739 68.9592 50.8267 68.796 51.4387 68.4492L70.1659 57.6372C71.3695 56.9436 72.1039 55.6788 72.1039 54.2916V32.6676C72.1039 31.2804 71.3695 30.0156 70.1659 29.322L51.4183 18.51C50.8267 18.1632 50.1535 18 49.4803 18H49.5007Z" fill="#9DCCED"/>
</g>
<path id="Vector_5" d="M37.0977 62.4515L38.8317 57.7188L42.2997 60.5951L39.0561 63.5735L37.0977 62.4515Z" fill="#213147"/>
<g id="Group_8">
<path id="Vector_6" d="M47.912 31.1376H43.1588C42.812 31.1376 42.4856 31.362 42.3632 31.6884L32.1836 59.5956L37.1 62.4312L48.32 31.6884C48.422 31.4028 48.218 31.1172 47.9324 31.1172L47.912 31.1376Z" fill="white"/>
<path id="Vector_7" d="M56.2344 31.1376H51.4812C51.1344 31.1376 50.808 31.362 50.6856 31.6884L39.0576 63.5532L43.974 66.3888L56.622 31.6884C56.724 31.4028 56.52 31.1172 56.2344 31.1172V31.1376Z" fill="white"/>
</g>
</g>
</g>
</g>
</g>
</svg>
