<svg width="99" height="87" viewBox="0 0 99 87" fill="none" xmlns="http://www.w3.org/2000/svg">
<rect x="1" y="1" width="97" height="85" rx="6" stroke="white" stroke-width="0.5"/>
<path d="M40.0862 39.9027L49.032 30.9573L57.9826 39.9075L63.1879 34.7022L49.032 20.5459L34.8809 34.6974L40.0862 39.9027Z" fill="#F3BA2F"/>
<path d="M36.4103 43.5773L31.2051 38.3721L25.9996 43.5776L31.2048 48.7828L36.4103 43.5773Z" fill="#F3BA2F"/>
<path d="M40.087 47.2539L49.0328 56.1994L57.983 47.2495L63.1913 52.4519L63.1887 52.4548L49.0328 66.6107L34.8813 52.4596L34.874 52.4523L40.087 47.2539Z" fill="#F3BA2F"/>
<path d="M66.8599 48.7856L72.0654 43.5801L66.8602 38.3749L61.6547 43.5803L66.8599 48.7856Z" fill="#F3BA2F"/>
<path d="M54.3126 43.5755H54.3148L49.0327 38.2935L45.1291 42.197H45.1288L44.6805 42.6456L43.7553 43.5708L43.748 43.5781L43.7553 43.5857L49.0327 48.8631L54.3148 43.581L54.3173 43.5781L54.3126 43.5755Z" fill="#F3BA2F"/>
</svg>
