<svg width="99" height="87" viewBox="0 0 99 87" fill="none" xmlns="http://www.w3.org/2000/svg">
<g id="Button">
<rect x="1" y="1" width="97" height="85" rx="6" stroke="white" stroke-width="0.5"/>
<g id="Group">
<path id="Vector" d="M60 37.3C59.3 36.9 58.4 36.9 57.6 37.3L52 40.6L48.2 42.7L42.7 46C42 46.4 41.1 46.4 40.3 46L36 43.4C35.3 43 34.8 42.2 34.8 41.3V36.3C34.8 35.5 35.2 34.7 36 34.2L40.3 31.7C41 31.3 41.9 31.3 42.7 31.7L47 34.3C47.7 34.7 48.2 35.5 48.2 36.4V39.7L52 37.5V34.1C52 33.3 51.6 32.5 50.8 32L42.8 27.3C42.1 26.9 41.2 26.9 40.4 27.3L32.2 32.1C31.4 32.5 31 33.3 31 34.1V43.5C31 44.3 31.4 45.1 32.2 45.6L40.3 50.3C41 50.7 41.9 50.7 42.7 50.3L48.2 47.1L52 44.9L57.5 41.7C58.2 41.3 59.1 41.3 59.9 41.7L64.2 44.2C64.9 44.6 65.4 45.4 65.4 46.3V51.3C65.4 52.1 65 52.9 64.2 53.4L60 55.9C59.3 56.3 58.4 56.3 57.6 55.9L53.3 53.4C52.6 53 52.1 52.2 52.1 51.3V48.1L48.3 50.3V53.6C48.3 54.4 48.7 55.2 49.5 55.7L57.6 60.4C58.3 60.8 59.2 60.8 60 60.4L68.1 55.7C68.8 55.3 69.3 54.5 69.3 53.6V44.1C69.3 43.3 68.9 42.5 68.1 42L60 37.3Z" fill="#8247E5"/>
</g>
</g>
</svg>
